HIERARCHY
ROOT Pelvis
{
	OFFSET 0.000000 0.000000 0.000000
	CHANNELS 6 Xposition Yposition Zposition Xrotation Yrotation Zrotation
	JOINT LeftUpLeg_virtual
	{
		OFFSET 0.000000 0.000000 0.000000
		CHANNELS 3 Xrotation Yrotation Zrotation
		JOINT LeftUpLeg
		{
			OFFSET 18.735201 -5.666702 -4.541200
			CHANNELS 3 Xrotation Yrotation Zrotation
			JOINT LeftLeg
			{
				OFFSET -0.021200 -31.938179 0.493100
				CHANNELS 3 Xrotation Yrotation Zrotation
				JOINT LeftFoot
				{
					OFFSET 0.021200 -31.938179 -4.336299
					CHANNELS 3 Xrotation Yrotation Zrotation
					JOINT LeftToeBase
					{
						OFFSET 0.943001 -26.722000 15.023500
						CHANNELS 3 Xrotation Yrotation Zrotation
						End Site
						{
							OFFSET 0 0 0
						}
					}
				}
			}
		}
	}
	JOINT RightUpLeg_virtual
	{
		OFFSET 0.000000 0.000000 0.000000
		CHANNELS 3 Xrotation Yrotation Zrotation
		JOINT RightUpLeg
		{
			OFFSET -18.735201 -5.666702 -4.541200
			CHANNELS 3 Xrotation Yrotation Zrotation
			JOINT RightLeg
			{
				OFFSET 0.018946 -31.938133 0.493100
				CHANNELS 3 Xrotation Yrotation Zrotation
				JOINT RightFoot
				{
					OFFSET -0.018946 -31.938126 -4.336299
					CHANNELS 3 Xrotation Yrotation Zrotation
					JOINT RightToeBase
					{
						OFFSET -0.943001 -26.722004 15.023500
						CHANNELS 3 Xrotation Yrotation Zrotation
						End Site
						{
							OFFSET 0 0 0
						}
					}
				}
			}
		}
	}
	JOINT Hips_virtual
	{
		OFFSET 0.000000 0.000000 0.000000
		CHANNELS 3 Xrotation Yrotation Zrotation
		JOINT Hips
		{
			OFFSET -0.000000 -0.000000 -0.000000
			CHANNELS 3 Xrotation Yrotation Zrotation
			JOINT Spine
			{
				OFFSET 0.000000 10.199997 -0.299500
				CHANNELS 3 Xrotation Yrotation Zrotation
				JOINT Spine1
				{
					OFFSET 0.000000 11.900002 -1.516600
					CHANNELS 3 Xrotation Yrotation Zrotation
					JOINT Spine2
					{
						OFFSET 0.000000 13.600006 -2.842500
						CHANNELS 3 Xrotation Yrotation Zrotation
						JOINT Neck_virtual
						{
							OFFSET 0.000000 0.000000 0.000000
							CHANNELS 3 Xrotation Yrotation Zrotation
							JOINT Neck
							{
								OFFSET 0.000000 9.624100 -2.890100
								CHANNELS 3 Xrotation Yrotation Zrotation
								JOINT Head
								{
									OFFSET 0.000000 14.068802 -1.351900
									CHANNELS 3 Xrotation Yrotation Zrotation
									End Site
									{
										OFFSET 0 0 0
									}
								}
							}
						}
						JOINT LeftShoulder_virtual
						{
							OFFSET 0.000000 0.000000 0.000000
							CHANNELS 3 Xrotation Yrotation Zrotation
							JOINT LeftShoulder
							{
								OFFSET 15.263000 10.923401 -0.547700
								CHANNELS 3 Xrotation Yrotation Zrotation
								JOINT LeftArm
								{
									OFFSET 25.438599 -2.830597 -13.032500
									CHANNELS 3 Xrotation Yrotation Zrotation
									JOINT LeftForeArm
									{
										OFFSET 29.960503 0.000000 0.000000
										CHANNELS 3 Xrotation Yrotation Zrotation
										JOINT LeftHand
										{
											OFFSET 27.849251 0.000000 0.000000
											CHANNELS 3 Xrotation Yrotation Zrotation
											End Site
											{
												OFFSET 0 0 0
											}
										}
									}
								}
							}
						}
						JOINT RightShoulder_virtual
						{
							OFFSET 0.000000 0.000000 0.000000
							CHANNELS 3 Xrotation Yrotation Zrotation
							JOINT RightShoulder
							{
								OFFSET -15.263000 10.923401 -0.547700
								CHANNELS 3 Xrotation Yrotation Zrotation
								JOINT RightArm
								{
									OFFSET -25.438599 -2.830597 -13.032500
									CHANNELS 3 Xrotation Yrotation Zrotation
									JOINT RightForeArm
									{
										OFFSET -29.960503 0.000000 0.000000
										CHANNELS 3 Xrotation Yrotation Zrotation
										JOINT RightHand
										{
											OFFSET -27.849251 0.000000 0.000000
											CHANNELS 3 Xrotation Yrotation Zrotation
											End Site
											{
												OFFSET 0 0 0
											}
										}
									}
								}
							}
						}
					}
				}
			}
		}
	}
}
MOTION
Frames: 12
Frame Time: 0.03333333
2.245728 80.385849 4.152090 0.000000 0.000000 0.000000 -3.114636 -42.882752 16.792334 -19.330019 29.836995 -3.626035 55.723996 2.498181 3.188451 -25.374255 20.554022 -7.369557 0.000000 0.000000 0.000000 -3.114636 -42.882752 16.792334 -36.424388 16.044997 -40.610177 76.478769 7.291040 -9.126247 -30.533268 -10.468803 25.659805 0.000000 0.000000 0.000000 -3.114636 -42.882752 16.792334 0.000000 0.000001 -0.000001 0.376551 -1.961128 8.027847 0.027304 -1.386081 5.062934 0.000000 0.000000 0.000000 -0.080025 -1.272382 5.054161 -4.511150 1.536315 3.060785 0.000000 0.000000 0.000000 -0.080025 -1.272382 5.054161 -0.548181 2.093935 14.135926 -33.452040 -33.142014 -47.500728 -0.000169 -87.864394 -0.000156 0.000000 0.000000 0.000000 -0.080025 -1.272382 5.054161 -0.011252 -5.892451 7.391171 118.821167 72.028115 -83.805950 0.000004 25.801432 -0.000002 0.000000 0.000000 0.000000 
2.681345 80.624756 4.243402 0.000000 0.000000 0.000000 -2.275984 -42.422985 17.375487 -19.819221 29.262115 -4.239642 54.957632 2.757906 2.644298 -24.990453 20.542976 -6.745529 0.000000 0.000000 0.000000 -2.275984 -42.422985 17.375487 -37.465343 16.092650 -40.253481 75.885259 7.012180 -9.156619 -29.707034 -10.003510 25.654281 0.000000 0.000000 0.000000 -2.275984 -42.422985 17.375487 0.000000 0.000003 0.000000 0.417727 -1.675797 8.018425 0.080687 -1.191927 5.048746 0.000000 0.000000 0.000000 -0.026331 -1.085812 5.036025 -4.503550 1.523657 2.862992 0.000000 0.000000 0.000000 -0.026331 -1.085812 5.036025 -0.621172 2.423845 13.794277 -32.468342 -33.363722 -47.016632 0.000701 -89.505046 0.000805 0.000000 0.000000 0.000000 -0.026331 -1.085812 5.036025 -0.002584 -5.888140 7.492394 118.408569 71.655986 -83.809249 0.000003 25.428869 -0.000013 0.000000 0.000000 0.000000 
3.117796 80.945366 4.306376 0.000000 0.000000 0.000000 -1.382403 -42.002778 17.969493 -20.203689 28.876209 -4.840623 53.882201 3.048277 2.200007 -24.425521 20.388210 -6.174363 0.000000 0.000000 0.000000 -1.382403 -42.002778 17.969493 -38.777050 15.944947 -39.762339 75.213333 6.643356 -9.223551 -28.844688 -9.169591 25.489487 0.000000 0.000000 0.000000 -1.382403 -42.002778 17.969493 0.000000 0.000001 -0.000001 0.469905 -1.377749 7.993370 0.140024 -0.990030 5.027503 0.000000 0.000000 0.000000 0.034599 -0.892060 5.011680 -4.499032 1.521606 2.694105 0.000000 0.000000 0.000000 0.034599 -0.892060 5.011680 -0.713344 2.845079 13.378913 -31.471743 -33.569441 -46.626232 -179.999704 -89.202790 -179.999650 0.000000 0.000000 0.000000 0.034599 -0.892060 5.011680 0.007037 -5.858261 7.548149 118.019576 71.112501 -83.953414 -0.000000 25.056464 0.000009 0.000000 0.000000 0.000000 
3.538334 81.332664 4.338572 0.000000 0.000000 0.000000 -0.463034 -41.593765 18.555531 -20.482033 28.708917 -5.417551 52.538276 3.336291 1.907733 -23.689755 20.078202 -5.674092 0.000000 0.000000 0.000000 -0.463034 -41.593765 18.555531 -40.227294 15.596824 -39.275435 74.373247 6.231016 -9.316188 -27.869945 -8.104584 25.262129 0.000000 0.000000 0.000000 -0.463034 -41.593765 18.555531 -0.000001 0.000001 0.000001 0.524104 -1.084993 7.947845 0.196458 -0.793560 5.000013 0.000000 0.000000 0.000000 0.093395 -0.702942 4.982107 -4.485932 1.529411 2.559126 0.000000 0.000000 0.000000 0.093395 -0.702942 4.982107 -0.812583 3.306761 12.932776 -30.510523 -33.820624 -46.309345 -179.999800 -88.347083 -179.999814 0.000000 0.000000 0.000000 0.093395 -0.702942 4.982107 0.016839 -5.810547 7.566558 117.834396 70.381438 -84.393804 0.000023 24.613640 -0.000006 0.000000 0.000000 0.000000 
3.934429 81.767441 4.345623 0.000000 0.000000 0.000000 0.424467 -41.164631 19.083038 -20.659953 28.724740 -5.955924 51.007317 3.594804 1.772644 -22.824863 19.628704 -5.241082 0.000000 0.000000 0.000000 0.424467 -41.164631 19.083038 -41.763441 15.058129 -38.776217 73.407786 5.874967 -9.438417 -26.794682 -6.940763 24.926804 0.000000 0.000000 0.000000 0.424467 -41.164631 19.083038 -0.000000 -0.000001 -0.000001 0.578844 -0.811267 7.892303 0.248646 -0.611696 4.969977 0.000000 0.000000 0.000000 0.148291 -0.527143 4.950949 -4.459920 1.542449 2.457156 0.000000 0.000000 0.000000 0.148291 -0.527143 4.950949 -0.900982 3.730468 12.504839 -29.630006 -34.106372 -46.030158 179.999609 -87.986470 179.999595 0.000000 0.000000 0.000000 0.148291 -0.527143 4.950949 0.026410 -5.749834 7.553621 117.949649 69.470148 -85.203939 0.000007 24.027671 -0.000013 0.000000 0.000000 0.000000 
4.300842 82.218658 4.334864 0.000000 0.000000 0.000000 1.208593 -40.686863 19.492296 -20.768893 28.836635 -6.428870 49.425161 3.801259 1.752439 -21.904017 19.082309 -4.855643 0.000000 0.000000 0.000000 1.208593 -40.686863 19.492296 -43.259556 14.350487 -38.275841 72.388544 5.576172 -9.567586 -25.671290 -5.826430 24.497442 0.000000 0.000000 0.000000 1.208593 -40.686863 19.492296 0.000001 0.000000 0.000000 0.641364 -0.561802 7.832995 0.303666 -0.446567 4.938162 0.000000 0.000000 0.000000 0.206239 -0.366706 4.918817 -4.423158 1.553411 2.383260 0.000000 0.000000 0.000000 0.206239 -0.366706 4.918817 -0.962642 4.040612 12.140055 -28.877985 -34.352081 -45.784725 179.999773 -88.144486 179.999814 0.000000 0.000000 0.000000 0.206239 -0.366706 4.918817 0.036307 -5.681952 7.530098 118.357165 68.429568 -86.353795 -0.000011 23.250504 0.000015 0.000000 0.000000 0.000000 
4.636475 82.654205 4.314856 0.000000 0.000000 0.000000 1.839276 -40.153668 19.741026 -20.857115 28.952854 -6.802300 47.939035 3.947986 1.782418 -21.011769 18.492659 -4.494044 0.000000 0.000000 0.000000 1.839276 -40.153668 19.741026 -44.609960 13.508955 -37.777121 71.401418 5.345788 -9.691034 -24.586622 -4.870339 23.987126 0.000000 0.000000 0.000000 1.839276 -40.153668 19.741026 0.000000 0.000000 0.000000 0.723446 -0.332935 7.775620 0.373151 -0.294168 4.904673 0.000000 0.000000 0.000000 0.278833 -0.218174 4.885692 -4.379729 1.555438 2.331118 0.000000 0.000000 0.000000 0.278833 -0.218174 4.885692 -0.992066 4.206208 11.860323 -28.353283 -34.505180 -45.620756 -179.999377 -88.778751 -179.999431 0.000000 0.000000 0.000000 0.278833 -0.218174 4.885692 0.044093 -5.617875 7.488481 118.954534 67.350774 -87.725440 -0.000010 22.292441 0.000015 0.000000 0.000000 0.000000 
4.938442 83.048843 4.290752 0.000000 0.000000 0.000000 2.293336 -39.573163 19.809210 -20.975255 29.011051 -7.039095 46.672564 4.039759 1.810773 -20.217589 17.901094 -4.145434 0.000000 0.000000 0.000000 2.293336 -39.573163 19.809210 -45.768691 12.608227 -37.315799 70.445929 5.200410 -9.800292 -23.506246 -4.126393 23.465933 0.000000 0.000000 0.000000 2.293336 -39.573163 19.809210 0.000000 0.000000 0.000001 0.834362 -0.118260 7.718667 0.466525 -0.150305 4.868681 0.000000 0.000000 0.000000 0.375578 -0.077667 4.850631 -4.329466 1.544187 2.296693 0.000000 0.000000 0.000000 0.375578 -0.077667 4.850631 -0.993948 4.241737 11.667666 -28.024867 -34.474454 -45.489767 -179.998803 -89.577562 -179.998939 0.000000 0.000000 0.000000 0.375578 -0.077667 4.850631 0.051851 -5.560320 7.463323 119.681553 66.339613 -89.247097 0.000000 21.180707 0.000008 0.000000 0.000000 0.000000 
5.208452 83.395676 4.267941 0.000000 0.000000 0.000000 2.573542 -38.957702 19.695557 -21.150266 28.983221 -7.121587 45.678338 4.091158 1.809485 -19.554275 17.326093 -3.804971 0.000000 0.000000 0.000000 2.573542 -38.957702 19.695557 -46.713061 11.653069 -36.877653 69.563626 5.156031 -9.895076 -22.499094 -3.600363 22.924995 0.000000 0.000000 0.000000 2.573542 -38.957702 19.695557 0.000001 -0.000002 0.000000 0.975841 0.084322 7.658327 0.586331 -0.013879 4.828194 0.000000 0.000000 0.000000 0.499184 0.055749 4.811665 -4.267458 1.518590 2.278655 0.000000 0.000000 0.000000 0.499184 0.055749 4.811665 -0.979585 4.192216 11.552907 -27.662401 -34.121798 -45.203216 -179.993229 -89.882967 -179.993038 0.000000 0.000000 0.000000 0.499184 0.055749 4.811665 0.059267 -5.513784 7.461360 120.496982 65.501173 -90.867812 -0.000006 19.982847 0.000000 0.000000 0.000000 0.000000 
5.447311 83.698090 4.248280 0.000000 0.000000 0.000000 2.701566 -38.315278 19.418757 -21.390088 28.867672 -7.053887 44.952227 4.120257 1.775397 -19.019939 16.766421 -3.478390 0.000000 0.000000 0.000000 2.701566 -38.315278 19.418757 -47.456322 10.648006 -36.469385 68.744283 5.186867 -9.974641 -21.578690 -3.222434 22.384412 0.000000 0.000000 0.000000 2.701566 -38.315278 19.418757 0.000000 0.000001 0.000000 1.141280 0.271153 7.586338 0.727378 0.111883 4.780889 0.000000 0.000000 0.000000 0.644576 0.178822 4.766411 -4.187520 1.480362 2.277846 0.000000 0.000000 0.000000 0.644576 0.178822 4.766411 -0.961051 4.107104 11.507584 -27.287357 -33.443864 -44.791575 -179.999431 -89.597978 -179.999527 0.000000 0.000000 0.000000 0.644576 0.178822 4.766411 0.066430 -5.479161 7.485394 121.391887 64.919500 -92.572771 0.000003 18.788515 -0.000002 0.000000 0.000000 0.000000 
5.655441 83.964188 4.231083 0.000000 0.000000 0.000000 2.706533 -37.643993 19.009673 -21.688941 28.672827 -6.861420 44.453415 4.144804 1.722577 -18.588534 16.210592 -3.177306 0.000000 0.000000 0.000000 2.706533 -37.643993 19.009673 -48.026861 9.597630 -36.104588 67.963620 5.264746 -10.040563 -20.740872 -2.909554 21.863738 0.000000 0.000000 0.000000 2.706533 -37.643993 19.009673 0.000000 -0.000001 0.000002 1.319327 0.433183 7.493588 0.879412 0.220162 4.725275 0.000000 0.000000 0.000000 0.801720 0.284952 4.713315 -4.086538 1.433033 2.296329 0.000000 0.000000 0.000000 0.801720 0.284952 4.713315 -0.946780 4.021462 11.528763 -27.264616 -32.676591 -44.572165 -179.998543 -89.442925 -179.998571 0.000000 0.000000 0.000000 0.801720 0.284952 4.713315 0.073535 -5.453139 7.529753 122.381280 64.638035 -94.376904 -0.000004 17.682774 0.000003 0.000000 0.000000 0.000000 
5.833200 84.203491 4.215679 0.000000 0.000000 0.000000 2.620578 -36.934200 18.507057 -22.030680 28.409175 -6.588508 44.119204 4.177644 1.675245 -18.221572 15.648848 -2.914020 0.000000 0.000000 0.000000 2.620578 -36.934200 18.507057 -48.463102 8.504129 -35.794252 67.205885 5.358799 -10.095773 -19.982304 -2.586126 21.370991 0.000000 0.000000 0.000000 2.620578 -36.934200 18.507057 0.000000 0.000001 -0.000001 1.498520 0.561475 7.371600 1.030760 0.305484 4.660096 0.000000 0.000000 0.000000 0.958996 0.368916 4.650948 -3.970204 1.381157 2.332891 0.000000 0.000000 0.000000 0.958996 0.368916 4.650948 -0.940426 3.952075 11.612869 -27.719561 -31.993166 -44.666828 -179.999199 -89.813374 -179.999267 0.000000 0.000000 0.000000 0.958996 0.368916 4.650948 0.080604 -5.426017 7.570548 123.497265 64.642345 -96.321411 -0.000004 16.701542 0.000018 0.000000 0.000000 0.000000 
